<svg width="13" height="15" viewBox="0 0 13 15" fill="none" xmlns="http://www.w3.org/2000/svg">
<path fill-rule="evenodd" clip-rule="evenodd" d="M5.09554 13.1692C5.09922 13.2562 5.08983 13.3411 5.07151 13.4271C5.03931 13.5781 4.97713 13.7379 4.88912 13.8856C4.63892 14.3053 4.21389 14.5854 3.66667 14.5854C2.37757 14.5854 1.87163 13.9529 1.23816 12.3693C0.809134 11.2967 0.606736 11.0437 0.125 11.0437V9.62704C1.4141 9.62704 1.92003 10.2595 2.5535 11.8431C2.98253 12.9157 3.18493 13.1687 3.66667 13.1687C3.66667 12.9632 3.66385 12.7811 3.65793 12.5346C3.64404 11.9567 3.64245 11.8387 3.66766 11.6842C3.67773 11.347 3.7648 11.1077 3.93937 10.8702C2.35851 10.5261 1.29228 9.8154 0.680315 8.66263L0.451072 8.12351C0.22774 7.48169 0.125 6.75446 0.125 5.91459C0.125 4.94732 0.419912 4.08246 0.970763 3.35952C0.798927 2.67233 0.82246 1.83274 1.20189 0.884552L1.32587 0.574723L1.64371 0.473052C1.68627 0.459439 1.73801 0.447145 1.79878 0.437605C2.41771 0.340465 3.29841 0.572232 4.44976 1.30972C5.1285 1.15239 5.84327 1.07295 6.56288 1.07295C7.20595 1.07295 7.84545 1.13778 8.45616 1.26559C9.57633 0.564105 10.4328 0.344092 11.0351 0.43773C11.0952 0.447071 11.1464 0.45913 11.1886 0.472513L11.5084 0.573936L11.6326 0.885655C11.9645 1.71918 12.0214 2.48734 11.9007 3.1595C12.5339 3.91934 12.875 4.85347 12.875 5.91459C12.875 6.80917 12.8109 7.48184 12.6267 8.13625L12.4322 8.66989C11.9232 9.82143 10.8006 10.5401 9.0695 10.8824C9.24943 11.1316 9.33333 11.3845 9.33333 11.752V12.4604C9.33333 12.8036 9.33333 12.8142 9.33255 13.1687C9.33416 13.1942 9.33628 13.2066 9.3386 13.2144C9.33822 13.2145 9.33647 13.6715 9.33333 14.5854C8.72998 14.5854 8.28136 14.2911 8.06072 13.827C7.94633 13.5863 7.91215 13.3565 7.91667 13.1586V11.752C7.91667 11.6926 7.91461 11.6892 7.76997 11.5446C7.38336 11.158 7.20833 10.8663 7.20833 10.3354V9.69461L7.84589 9.63058C9.7437 9.43999 10.7759 8.91295 11.1181 8.14301L11.278 7.7058C11.4053 7.24866 11.4583 6.69193 11.4583 5.91459C11.4583 5.08861 11.17 4.40629 10.6246 3.86115L10.3249 3.56151L10.4472 3.15572C10.5559 2.79522 10.5817 2.36864 10.4667 1.88209C10.4476 1.88694 10.4278 1.89221 10.4072 1.89795C10.0279 2.00354 9.55436 2.23011 8.98373 2.61153L8.72347 2.7855L8.41962 2.71016C7.83194 2.56443 7.20044 2.48962 6.56288 2.48962C5.8539 2.48962 5.15308 2.57982 4.50566 2.75632L4.1897 2.84246L3.91941 2.65755C3.32923 2.25381 2.83894 2.01371 2.4458 1.90155C2.41772 1.89354 2.39099 1.88638 2.36557 1.87999C2.22841 2.4431 2.28266 2.90575 2.42158 3.25291L2.58815 3.66916L2.28321 3.99783C1.7973 4.52156 1.54167 5.15889 1.54167 5.91459C1.54167 6.60646 1.62266 7.17976 1.77108 7.61161L1.95644 8.05038C2.41981 8.91987 3.40402 9.44297 5.15883 9.63107L5.79167 9.6989V10.3354C5.79167 10.8663 5.61664 11.158 5.23003 11.5446C5.08539 11.6892 5.08333 11.6926 5.08333 11.752L5.07112 11.883C5.06305 11.9259 5.06305 12.0368 5.07419 12.5005C5.07931 12.7138 5.08223 12.8826 5.08307 13.059C5.09154 13.0955 5.09282 13.1191 5.09554 13.1692Z" fill="white"/>
</svg>
